<?xml version="1.0" encoding="UTF-8" standalone="no"?>
<!DOCTYPE svg PUBLIC "-//W3C//DTD SVG 1.0//EN" "http://www.w3.org/TR/2001/PR-SVG-20010719/DTD/svg10.dtd">
<svg width="26cm" height="15cm" viewBox="357 160 510 296" xmlns="http://www.w3.org/2000/svg" xmlns:xlink="http://www.w3.org/1999/xlink">
  <g>
    <rect style="fill: #ffffff" x="680" y="417.406" width="133.8" height="18"/>
    <rect style="fill: none; fill-opacity:0; stroke-width: 2; stroke: #000000" x="680" y="417.406" width="133.8" height="18"/>
    <text font-size="11.2" style="fill: #000000;text-anchor:middle;font-family:sans-serif;font-style:normal;font-weight:700" x="746.9" y="431.406">Role</text>
    <rect style="fill: #ffffff" x="680" y="435.406" width="133.8" height="20"/>
    <rect style="fill: none; fill-opacity:0; stroke-width: 2; stroke: #000000" x="680" y="435.406" width="133.8" height="20"/>
    <polygon style="fill: #000000" points="683,445.406 685,448.406 687,445.406 685,442.406 "/>
    <text font-size="12.8" style="fill: #000000;text-anchor:start;font-family:monospace;font-style:normal;font-weight:normal" x="689" y="451.406">role_id</text>
    <text font-size="12.8" style="fill: #000000;text-anchor:start;font-family:monospace;font-style:normal;font-weight:normal" x="752.9" y="451.406">VARCHAR</text>
    <line style="fill: none; fill-opacity:0; stroke-width: 1; stroke: #000000" x1="689" y1="453.006" x2="806.8" y2="453.006"/>
  </g>
  <g>
    <rect style="fill: #ffffff" x="510" y="290" width="95.3" height="18"/>
    <rect style="fill: none; fill-opacity:0; stroke-width: 2; stroke: #000000" x="510" y="290" width="95.3" height="18"/>
    <text font-size="11.2" style="fill: #000000;text-anchor:middle;font-family:sans-serif;font-style:normal;font-weight:700" x="557.65" y="304">Person</text>
    <rect style="fill: #ffffff" x="510" y="308" width="95.3" height="132"/>
    <rect style="fill: none; fill-opacity:0; stroke-width: 2; stroke: #000000" x="510" y="308" width="95.3" height="132"/>
    <polygon style="fill: #000000" points="513,318 515,321 517,318 515,315 "/>
    <text font-size="12.8" style="fill: #000000;text-anchor:start;font-family:monospace;font-style:normal;font-weight:normal" x="519" y="324">person_id</text>
    <line style="fill: none; fill-opacity:0; stroke-width: 1; stroke: #000000" x1="519" y1="325.6" x2="598.3" y2="325.6"/>
    <ellipse style="fill: #000000" cx="515" cy="334" rx="2" ry="2"/>
    <text font-size="12.8" style="fill: #000000;text-anchor:start;font-family:monospace;font-style:normal;font-weight:normal" x="519" y="340">name</text>
    <ellipse style="fill: #000000" cx="515" cy="350" rx="2" ry="2"/>
    <text font-size="12.8" style="fill: #000000;text-anchor:start;font-family:monospace;font-style:normal;font-weight:normal" x="519" y="356">surname</text>
    <ellipse style="fill: #000000" cx="515" cy="366" rx="2" ry="2"/>
    <text font-size="12.8" style="fill: #000000;text-anchor:start;font-family:monospace;font-style:normal;font-weight:normal" x="519" y="372">ssn</text>
    <ellipse style="fill: #000000" cx="515" cy="382" rx="2" ry="2"/>
    <text font-size="12.8" style="fill: #000000;text-anchor:start;font-family:monospace;font-style:normal;font-weight:normal" x="519" y="388">email</text>
    <ellipse style="fill: #000000" cx="515" cy="398" rx="2" ry="2"/>
    <text font-size="12.8" style="fill: #000000;text-anchor:start;font-family:monospace;font-style:normal;font-weight:normal" x="519" y="404">password</text>
    <ellipse style="fill: #000000" cx="515" cy="414" rx="2" ry="2"/>
    <text font-size="12.8" style="fill: #000000;text-anchor:start;font-family:monospace;font-style:normal;font-weight:normal" x="519" y="420">role</text>
    <ellipse style="fill: #000000" cx="515" cy="430" rx="2" ry="2"/>
    <text font-size="12.8" style="fill: #000000;text-anchor:start;font-family:monospace;font-style:normal;font-weight:normal" x="519" y="436">username</text>
  </g>
  <g>
    <rect style="fill: #ffffff" x="680" y="320" width="141.5" height="18"/>
    <rect style="fill: none; fill-opacity:0; stroke-width: 2; stroke: #000000" x="680" y="320" width="141.5" height="18"/>
    <text font-size="11.2" style="fill: #000000;text-anchor:middle;font-family:sans-serif;font-style:normal;font-weight:700" x="750.75" y="334">Availability</text>
    <rect style="fill: #ffffff" x="680" y="338" width="141.5" height="68"/>
    <rect style="fill: none; fill-opacity:0; stroke-width: 2; stroke: #000000" x="680" y="338" width="141.5" height="68"/>
    <polygon style="fill: #000000" points="683,348 685,351 687,348 685,345 "/>
    <text font-size="12.8" style="fill: #000000;text-anchor:start;font-family:monospace;font-style:normal;font-weight:normal" x="689" y="354">availability_id</text>
    <line style="fill: none; fill-opacity:0; stroke-width: 1; stroke: #000000" x1="689" y1="355.6" x2="814.5" y2="355.6"/>
    <ellipse style="fill: #000000" cx="685" cy="364" rx="2" ry="2"/>
    <text font-size="12.8" style="fill: #000000;text-anchor:start;font-family:monospace;font-style:normal;font-weight:normal" x="689" y="370">person</text>
    <ellipse style="fill: #000000" cx="685" cy="380" rx="2" ry="2"/>
    <text font-size="12.8" style="fill: #000000;text-anchor:start;font-family:monospace;font-style:normal;font-weight:normal" x="689" y="386">from_date</text>
    <ellipse style="fill: #000000" cx="685" cy="396" rx="2" ry="2"/>
    <text font-size="12.8" style="fill: #000000;text-anchor:start;font-family:monospace;font-style:normal;font-weight:normal" x="689" y="402">to_date</text>
  </g>
  <g>
    <rect style="fill: #ffffff" x="680" y="256.432" width="126.1" height="18"/>
    <rect style="fill: none; fill-opacity:0; stroke-width: 2; stroke: #000000" x="680" y="256.432" width="126.1" height="18"/>
    <text font-size="11.2" style="fill: #000000;text-anchor:middle;font-family:sans-serif;font-style:normal;font-weight:700" x="743.05" y="270.432">Competence</text>
    <rect style="fill: #ffffff" x="680" y="274.432" width="126.1" height="36"/>
    <rect style="fill: none; fill-opacity:0; stroke-width: 2; stroke: #000000" x="680" y="274.432" width="126.1" height="36"/>
    <polygon style="fill: #000000" points="683,284.432 685,287.432 687,284.432 685,281.432 "/>
    <text font-size="12.8" style="fill: #000000;text-anchor:start;font-family:monospace;font-style:normal;font-weight:normal" x="689" y="290.432">competence_id</text>
    <line style="fill: none; fill-opacity:0; stroke-width: 1; stroke: #000000" x1="689" y1="292.032" x2="799.1" y2="292.032"/>
    <ellipse style="fill: #000000" cx="685" cy="300.432" rx="2" ry="2"/>
    <text font-size="12.8" style="fill: #000000;text-anchor:start;font-family:monospace;font-style:normal;font-weight:normal" x="689" y="306.432">name</text>
  </g>
  <g>
    <rect style="fill: #ffffff" x="680" y="160" width="187.7" height="18"/>
    <rect style="fill: none; fill-opacity:0; stroke-width: 2; stroke: #000000" x="680" y="160" width="187.7" height="18"/>
    <text font-size="11.2" style="fill: #000000;text-anchor:middle;font-family:sans-serif;font-style:normal;font-weight:700" x="773.85" y="174">Competence_profile</text>
    <rect style="fill: #ffffff" x="680" y="178" width="187.7" height="68"/>
    <rect style="fill: none; fill-opacity:0; stroke-width: 2; stroke: #000000" x="680" y="178" width="187.7" height="68"/>
    <polygon style="fill: #000000" points="683,188 685,191 687,188 685,185 "/>
    <text font-size="12.8" style="fill: #000000;text-anchor:start;font-family:monospace;font-style:normal;font-weight:normal" x="689" y="194">competence_profile_id</text>
    <line style="fill: none; fill-opacity:0; stroke-width: 1; stroke: #000000" x1="689" y1="195.6" x2="860.7" y2="195.6"/>
    <ellipse style="fill: #000000" cx="685" cy="204" rx="2" ry="2"/>
    <text font-size="12.8" style="fill: #000000;text-anchor:start;font-family:monospace;font-style:normal;font-weight:normal" x="689" y="210">person</text>
    <ellipse style="fill: #000000" cx="685" cy="220" rx="2" ry="2"/>
    <text font-size="12.8" style="fill: #000000;text-anchor:start;font-family:monospace;font-style:normal;font-weight:normal" x="689" y="226">competence</text>
    <ellipse style="fill: #000000" cx="685" cy="236" rx="2" ry="2"/>
    <text font-size="12.8" style="fill: #000000;text-anchor:start;font-family:monospace;font-style:normal;font-weight:normal" x="689" y="242">years_of_experience</text>
  </g>
  <g>
    <rect style="fill: #ffffff" x="379.761" y="255.114" width="56.8" height="18"/>
    <rect style="fill: none; fill-opacity:0; stroke-width: 2; stroke: #000000" x="379.761" y="255.114" width="56.8" height="18"/>
    <text font-size="11.2" style="fill: #000000;text-anchor:middle;font-family:sans-serif;font-style:normal;font-weight:700" x="408.161" y="269.114">Status</text>
    <rect style="fill: #ffffff" x="379.761" y="273.114" width="56.8" height="20"/>
    <rect style="fill: none; fill-opacity:0; stroke-width: 2; stroke: #000000" x="379.761" y="273.114" width="56.8" height="20"/>
    <polygon style="fill: #000000" points="382.761,283.114 384.761,286.114 386.761,283.114 384.761,280.114 "/>
    <text font-size="12.8" style="fill: #000000;text-anchor:start;font-family:monospace;font-style:normal;font-weight:normal" x="388.761" y="289.114">name</text>
    <line style="fill: none; fill-opacity:0; stroke-width: 1; stroke: #000000" x1="388.761" y1="290.714" x2="429.561" y2="290.714"/>
  </g>
  <g>
    <rect style="fill: #ffffff" x="380" y="304" width="81.4" height="18"/>
    <rect style="fill: none; fill-opacity:0; stroke-width: 2; stroke: #000000" x="380" y="304" width="81.4" height="18"/>
    <text font-size="11.2" style="fill: #000000;text-anchor:middle;font-family:sans-serif;font-style:normal;font-weight:700" x="420.7" y="318">Application</text>
    <rect style="fill: #ffffff" x="380" y="322" width="81.4" height="52"/>
    <rect style="fill: none; fill-opacity:0; stroke-width: 2; stroke: #000000" x="380" y="322" width="81.4" height="52"/>
    <ellipse style="fill: #000000" cx="385" cy="332" rx="2" ry="2"/>
    <text font-size="12.8" style="fill: #000000;text-anchor:start;font-family:monospace;font-style:normal;font-weight:normal" x="389" y="338">version</text>
    <polygon style="fill: #000000" points="383,348 385,351 387,348 385,345 "/>
    <text font-size="12.8" style="fill: #000000;text-anchor:start;font-family:monospace;font-style:normal;font-weight:normal" x="389" y="354">person</text>
    <line style="fill: none; fill-opacity:0; stroke-width: 1; stroke: #000000" x1="389" y1="355.6" x2="452.9" y2="355.6"/>
    <ellipse style="fill: #000000" cx="385" cy="364" rx="2" ry="2"/>
    <text font-size="12.8" style="fill: #000000;text-anchor:start;font-family:monospace;font-style:normal;font-weight:normal" x="389" y="370">status</text>
  </g>
  <g>
    <polyline style="fill: none; fill-opacity:0; stroke-width: 2; stroke: #000000" points="605.3,414 642.65,414 642.65,445.406 680,445.406 "/>
    <line style="fill: none; fill-opacity:0; stroke-width: 2; stroke: #000000" x1="615.3" y1="414" x2="605.3" y2="409"/>
    <line style="fill: none; fill-opacity:0; stroke-width: 2; stroke: #000000" x1="615.3" y1="414" x2="605.3" y2="419"/>
    <path style="fill: none; fill-opacity:0; stroke-width: 2; stroke: #000000" d="M 617.8 414 C 617.8,411.5 619.05,409 620.3,409 C 621.55,409 622.8,411.5 622.8,414 C 622.8,416.5 621.55,419 620.3,419 C 619.05,419 617.8,416.5 617.8,414"/>
    <line style="fill: none; fill-opacity:0; stroke-width: 2; stroke: #000000" x1="675" y1="440.406" x2="675" y2="450.406"/>
    <line style="fill: none; fill-opacity:0; stroke-width: 2; stroke: #000000" x1="670" y1="440.406" x2="670" y2="450.406"/>
  </g>
  <g>
    <polyline style="fill: none; fill-opacity:0; stroke-width: 2; stroke: #000000" points="605.3,318 642.65,318 642.65,364 680,364 "/>
    <line style="fill: none; fill-opacity:0; stroke-width: 2; stroke: #000000" x1="610.3" y1="323" x2="610.3" y2="313"/>
    <line style="fill: none; fill-opacity:0; stroke-width: 2; stroke: #000000" x1="615.3" y1="323" x2="615.3" y2="313"/>
    <line style="fill: none; fill-opacity:0; stroke-width: 2; stroke: #000000" x1="670" y1="364" x2="680" y2="369"/>
    <line style="fill: none; fill-opacity:0; stroke-width: 2; stroke: #000000" x1="670" y1="364" x2="680" y2="359"/>
    <path style="fill: none; fill-opacity:0; stroke-width: 2; stroke: #000000" d="M 667.5 364 C 667.5,366.5 666.25,369 665,369 C 663.75,369 662.5,366.5 662.5,364 C 662.5,361.5 663.75,359 665,359 C 666.25,359 667.5,361.5 667.5,364"/>
  </g>
  <g>
    <polyline style="fill: none; fill-opacity:0; stroke-width: 2; stroke: #000000" points="510,318 485.7,318 485.7,348 461.4,348 "/>
    <line style="fill: none; fill-opacity:0; stroke-width: 2; stroke: #000000" x1="505" y1="313" x2="505" y2="323"/>
    <line style="fill: none; fill-opacity:0; stroke-width: 2; stroke: #000000" x1="500" y1="313" x2="500" y2="323"/>
    <line style="fill: none; fill-opacity:0; stroke-width: 2; stroke: #000000" x1="466.4" y1="353" x2="466.4" y2="343"/>
    <line style="fill: none; fill-opacity:0; stroke-width: 2; stroke: #000000" x1="471.4" y1="353" x2="471.4" y2="343"/>
  </g>
  <g>
    <polyline style="fill: none; fill-opacity:0; stroke-width: 2; stroke: #000000" points="380,364 358.761,364 358.761,283.114 379.761,283.114 "/>
    <line style="fill: none; fill-opacity:0; stroke-width: 2; stroke: #000000" x1="370" y1="364" x2="380" y2="369"/>
    <line style="fill: none; fill-opacity:0; stroke-width: 2; stroke: #000000" x1="370" y1="364" x2="380" y2="359"/>
    <path style="fill: none; fill-opacity:0; stroke-width: 2; stroke: #000000" d="M 367.5 364 C 367.5,366.5 366.25,369 365,369 C 363.75,369 362.5,366.5 362.5,364 C 362.5,361.5 363.75,359 365,359 C 366.25,359 367.5,361.5 367.5,364"/>
    <line style="fill: none; fill-opacity:0; stroke-width: 2; stroke: #000000" x1="374.761" y1="278.114" x2="374.761" y2="288.114"/>
    <line style="fill: none; fill-opacity:0; stroke-width: 2; stroke: #000000" x1="369.761" y1="278.114" x2="369.761" y2="288.114"/>
  </g>
  <g>
    <polyline style="fill: none; fill-opacity:0; stroke-width: 2; stroke: #000000" points="680,300.432 659,300.432 659,220 680,220 "/>
    <line style="fill: none; fill-opacity:0; stroke-width: 2; stroke: #000000" x1="675" y1="295.432" x2="675" y2="305.432"/>
    <line style="fill: none; fill-opacity:0; stroke-width: 2; stroke: #000000" x1="670" y1="295.432" x2="670" y2="305.432"/>
    <line style="fill: none; fill-opacity:0; stroke-width: 2; stroke: #000000" x1="670" y1="220" x2="680" y2="225"/>
    <line style="fill: none; fill-opacity:0; stroke-width: 2; stroke: #000000" x1="670" y1="220" x2="680" y2="215"/>
    <path style="fill: none; fill-opacity:0; stroke-width: 2; stroke: #000000" d="M 667.5 220 C 667.5,222.5 666.25,225 665,225 C 663.75,225 662.5,222.5 662.5,220 C 662.5,217.5 663.75,215 665,215 C 666.25,215 667.5,217.5 667.5,220"/>
  </g>
  <g>
    <polyline style="fill: none; fill-opacity:0; stroke-width: 2; stroke: #000000" points="605.3,318 642.65,318 642.65,204 680,204 "/>
    <line style="fill: none; fill-opacity:0; stroke-width: 2; stroke: #000000" x1="610.3" y1="323" x2="610.3" y2="313"/>
    <line style="fill: none; fill-opacity:0; stroke-width: 2; stroke: #000000" x1="615.3" y1="323" x2="615.3" y2="313"/>
    <line style="fill: none; fill-opacity:0; stroke-width: 2; stroke: #000000" x1="670" y1="204" x2="680" y2="209"/>
    <line style="fill: none; fill-opacity:0; stroke-width: 2; stroke: #000000" x1="670" y1="204" x2="680" y2="199"/>
    <path style="fill: none; fill-opacity:0; stroke-width: 2; stroke: #000000" d="M 667.5 204 C 667.5,206.5 666.25,209 665,209 C 663.75,209 662.5,206.5 662.5,204 C 662.5,201.5 663.75,199 665,199 C 666.25,199 667.5,201.5 667.5,204"/>
  </g>
</svg>
